<?xml version="1.0" ?><!DOCTYPE svg  PUBLIC '-//W3C//DTD SVG 1.1//EN'  'http://www.w3.org/Graphics/SVG/1.1/DTD/svg11.dtd'><svg enable-background="new 0 0 50 50" id="Layer_1" version="1.1" viewBox="0 0 50 50" xml:space="preserve" xmlns="http://www.w3.org/2000/svg" xmlns:xlink="http://www.w3.org/1999/xlink"><path d="M45,1H5C2.8,1,1,2.8,1,5v40c0,2.2,1.8,4,4,4h40c2.2,0,4-1.8,4-4V5C49,2.8,47.2,1,45,1z" fill="#0275d8"/><path d="M25,19v8c0,0,2,1,4,1c2,0,5-1,5-6c0-7-10-7-10-7s-5,0-8,4c-2.7,3.6,1,7,1,7l-3,3c0,0-3-3-3-7  c0-2.2,0.2-4.4,2-7c3.2-3.8,7-5,11.1-5c7,0,14.9,4,14.9,11c0,2,0,4-2,7s-5,4-8,4c-2,0-4-1-4-1v6c0,0-1,3-5,3c-2,0-4-1-4-1v-4  c1.4,1.4,4.3,2.1,5,0l0-16H25z" fill="#FFFFFF" id="P"/></svg>